<?xml version="1.0" standalone="no"?>
<!DOCTYPE svg PUBLIC "-//W3C//DTD SVG 20010904//EN"
 "http://www.w3.org/TR/2001/REC-SVG-20010904/DTD/svg10.dtd">
<svg version="1.0" xmlns="http://www.w3.org/2000/svg"
 width="71.000000pt" height="71.000000pt" viewBox="0 0 71.000000 71.000000"
 preserveAspectRatio="xMidYMid meet">
<metadata>
Created by potrace 1.11, written by Peter Selinger 2001-2013
</metadata>
<g transform="translate(0.000000,71.000000) scale(0.100000,-0.100000)"
fill="#000000" stroke="none">
<path d="M275 703 c-108 -26 -226 -142 -252 -246 -9 -39 -19 -127 -14 -132 2
-3 6 -17 7 -31 5 -50 56 -139 107 -186 28 -27 56 -48 64 -48 7 0 13 -4 13 -8
0 -5 6 -9 13 -10 6 0 32 -7 57 -15 43 -14 128 -16 176 -4 12 3 40 14 63 25
l40 20 28 -24 c35 -30 74 -31 100 -2 24 27 36 58 23 58 -6 0 -10 7 -10 15 0 8
-4 15 -8 15 -5 0 -14 10 -21 23 -9 18 -8 29 9 62 11 21 20 47 20 57 0 9 3 19
8 21 9 7 9 88 -1 105 -5 6 -4 12 2 12 11 0 7 13 -32 103 -11 26 -25 47 -30 47
-6 0 -8 3 -4 6 11 11 -76 84 -132 112 -43 21 -71 27 -130 28 -42 1 -85 -1 -96
-3z"/>
</g>
</svg>
