<svg xmlns="http://www.w3.org/2000/svg" width="42" height="42" viewBox="0 0 42 42">
    <defs>
        <style>
            .cls-1,.cls-2{fill:none;stroke:#505050;stroke-linejoin:round;stroke-width:2px;}.cls-2{stroke-linecap:round;}
        </style>
    </defs>
    <title>Ресурс 8</title>
    <g id="Слой_2" data-name="Слой 2">
        <g id="icons">
            <circle class="cls-1" cx="21" cy="21" r="17"/>
            <circle class="cls-1" cx="21" cy="21" r="4"/>
            <path class="cls-2" d="M15,10c2-2,6.41-2.34,6.58-2A9.1,9.1,0,0,1,21,17"/>
            <path class="cls-2" d="M8.66,18.83c-.32-2.81,2.17-6.47,2.54-6.39a9.1,9.1,0,0,1,6.68,6.07"/>
            <path class="cls-2" d="M11.6,29.29c-2.39-1.51-3.7-5.73-3.41-6a9.1,9.1,0,0,1,8.9-1.43"/>
            <path class="cls-2" d="M21.61,33.51c-2.67.93-6.79-.68-6.79-1.06a9.1,9.1,0,0,1,4.44-7.85"/>
            <path class="cls-2" d="M31.16,28.33C30.22,31,26.4,33.21,26.1,33a9.1,9.1,0,0,1-3.37-8.37"/>
            <path class="cls-2" d="M33.07,17.63c1.5,2.4.84,6.77.47,6.86A9.1,9.1,0,0,1,24.9,21.9"/>
            <path class="cls-2" d="M25.89,9.47c2.81.33,5.82,3.56,5.65,3.91a9.1,9.1,0,0,1-7.41,5.14"/>
            <rect class="cls-1" x="1" y="1" width="40" height="40" rx="2" ry="2"/>
            <line class="cls-1" x1="37" y1="4" x2="37" y2="6"/>
            <line class="cls-1" x1="37" y1="36" x2="37" y2="38"/>
            <line class="cls-1" x1="5" y1="4" x2="5" y2="6"/>
            <line class="cls-1" x1="5" y1="36" x2="5" y2="38"/>
        </g>
    </g>
</svg>