<svg xmlns="http://www.w3.org/2000/svg" width="40" height="45" viewBox="0 0 40 45">
    <defs>
        <style>.cls-1{fill:none;stroke:#505050;stroke-linejoin:round;stroke-width:2px;}</style>
    </defs>
    <title>Ресурс 10</title>
    <g id="Слой_2" data-name="Слой 2">
        <g id="icons">
            <path class="cls-1"
                  d="M3,44H37a2,2,0,0,0,2-2V9.9a2,2,0,0,0-.67-1.49l-7.76-6.9A2,2,0,0,0,29.24,1H10.76a2,2,0,0,0-1.33.51L1.67,8.4A2,2,0,0,0,1,9.9V42A2,2,0,0,0,3,44Z"/>
            <line class="cls-1" x1="39" y1="11" x2="1" y2="11"/>
            <line class="cls-1" x1="39" y1="22" x2="1" y2="22"/>
            <line class="cls-1" x1="39" y1="33" x2="1" y2="33"/>
            <line class="cls-1" x1="5" y1="18" x2="11" y2="18"/>
            <line class="cls-1" x1="30" y1="16" x2="30" y2="19"/>
            <line class="cls-1" x1="34" y1="16" x2="34" y2="19"/>
            <line class="cls-1" x1="5" y1="29" x2="11" y2="29"/>
            <line class="cls-1" x1="30" y1="27" x2="30" y2="30"/>
            <line class="cls-1" x1="34" y1="27" x2="34" y2="30"/>
            <line class="cls-1" x1="5" y1="40" x2="11" y2="40"/>
            <line class="cls-1" x1="30" y1="38" x2="30" y2="41"/>
            <line class="cls-1" x1="34" y1="38" x2="34" y2="41"/>
        </g>
    </g>
</svg>