<svg xmlns="http://www.w3.org/2000/svg" width="37.91" height="47.91" viewBox="0 0 37.91 47.91"><defs><style>.cls-1{fill:none;stroke:#505050;stroke-miterlimit:10;stroke-width:2px;}</style></defs><title>Ресурс 11</title><g id="Слой_2" data-name="Слой 2"><g id="icons"><polyline class="cls-1" points="15.41 8.41 12.41 5.41 16.41 1.41 19.41 4.41"/><path class="cls-1" d="M20.71,15.71l-5.59-5.59A.93.93,0,0,1,15,8.82L19.82,4a.93.93,0,0,1,1.3.12l5.59,5.59a.93.93,0,0,1,.12,1.3L22,15.82A.93.93,0,0,1,20.71,15.71Z"/><path class="cls-1" d="M22.91,15.91l6.95,6.95a7,7,0,0,1,2.05,4.95v20.1"/><path class="cls-1" d="M26.91,11.91l7.95,7.95a7,7,0,0,1,2.05,4.95v23.1"/><polyline class="cls-1" points="4.41 19.41 1.41 16.41 5.41 12.41 8.41 15.41"/><path class="cls-1" d="M9.71,26.71,4.12,21.12A.93.93,0,0,1,4,19.82L8.82,15a.93.93,0,0,1,1.3.12l5.59,5.59a.93.93,0,0,1,.12,1.3L11,26.82A.93.93,0,0,1,9.71,26.71Z"/><path class="cls-1" d="M11.91,26.91l6.95,6.95a7,7,0,0,1,2.05,4.95v9.1"/><path class="cls-1" d="M15.91,22.91l7.95,7.95a7,7,0,0,1,2.05,4.95v12.1"/></g></g></svg>