<svg xmlns="http://www.w3.org/2000/svg" width="42" height="43" viewBox="0 0 42 43"><defs><style>.cls-1{fill:none;stroke:#505050;stroke-linejoin:round;stroke-width:2px;}</style></defs><title>Ресурс 14</title><g id="Слой_2" data-name="Слой 2"><g id="icons"><path class="cls-1" d="M31.08,12.61c1.76,2.64,1,5.84-2.3,8-3.46,2.27-8.65,2.71-12.78,1.33"/><path class="cls-1" d="M10.73,18.09c-1.51-2.58-.68-5.61,2.49-7.69A15.42,15.42,0,0,1,24.86,8.74"/><line class="cls-1" x1="24.65" y1="17.89" x2="32.31" y2="22.92"/><line class="cls-1" x1="17.35" y1="13.11" x2="9.69" y2="8.08"/><line class="cls-1" x1="17.35" y1="17.89" x2="9.69" y2="22.92"/><line class="cls-1" x1="24.65" y1="13.11" x2="32.31" y2="8.08"/><path class="cls-1" d="M8.5-4.5h27a0,0,0,0,1,0,0v40a0,0,0,0,1,0,0H8.5a2,2,0,0,1-2-2v-36A2,2,0,0,1,8.5-4.5Z" transform="translate(36.5 -5.5) rotate(90)"/><path class="cls-1" d="M41,30V40a2,2,0,0,1-2,2H3a2,2,0,0,1-2-2V30"/><rect class="cls-1" x="29" y="34" width="7" height="4"/><line class="cls-1" x1="38" y1="26" x2="36" y2="26"/><line class="cls-1" x1="38" y1="5" x2="36" y2="5"/><line class="cls-1" x1="6" y1="5" x2="4" y2="5"/><line class="cls-1" x1="6" y1="26" x2="4" y2="26"/><ellipse class="cls-1" cx="21" cy="15.5" rx="16" ry="10.5"/><ellipse class="cls-1" cx="21" cy="15.5" rx="5" ry="3.5"/></g></g></svg>