<svg xmlns="http://www.w3.org/2000/svg" width="42" height="42" viewBox="0 0 42 42"><defs><style>.cls-1{fill:none;stroke:#505050;stroke-miterlimit:10;stroke-width:2px;}</style></defs><title>Ресурс 16</title><g id="Слой_2" data-name="Слой 2"><g id="icons"><rect class="cls-1" x="5" y="5" width="32" height="32"/><rect class="cls-1" x="15" y="15" width="12" height="12"/><line class="cls-1" x1="13" y1="5" x2="13"/><line class="cls-1" x1="9" y1="5" x2="9"/><line class="cls-1" x1="17" y1="5" x2="17"/><line class="cls-1" x1="21" y1="5" x2="21"/><line class="cls-1" x1="25" y1="5" x2="25"/><line class="cls-1" x1="29" y1="5" x2="29"/><line class="cls-1" x1="33" y1="5" x2="33"/><line class="cls-1" x1="13" y1="42" x2="13" y2="37"/><line class="cls-1" x1="9" y1="42" x2="9" y2="37"/><line class="cls-1" x1="17" y1="42" x2="17" y2="37"/><line class="cls-1" x1="21" y1="42" x2="21" y2="37"/><line class="cls-1" x1="25" y1="42" x2="25" y2="37"/><line class="cls-1" x1="29" y1="42" x2="29" y2="37"/><line class="cls-1" x1="33" y1="42" x2="33" y2="37"/><line class="cls-1" x1="5" y1="9" y2="9"/><line class="cls-1" x1="5" y1="13" y2="13"/><line class="cls-1" x1="5" y1="17" y2="17"/><line class="cls-1" x1="5" y1="21" y2="21"/><line class="cls-1" x1="5" y1="25" y2="25"/><line class="cls-1" x1="5" y1="29" y2="29"/><line class="cls-1" x1="5" y1="33" y2="33"/><line class="cls-1" x1="42" y1="9" x2="37" y2="9"/><line class="cls-1" x1="42" y1="13" x2="37" y2="13"/><line class="cls-1" x1="42" y1="17" x2="37" y2="17"/><line class="cls-1" x1="42" y1="21" x2="37" y2="21"/><line class="cls-1" x1="42" y1="25" x2="37" y2="25"/><line class="cls-1" x1="42" y1="29" x2="37" y2="29"/><line class="cls-1" x1="42" y1="33" x2="37" y2="33"/></g></g></svg>