<svg xmlns="http://www.w3.org/2000/svg" width="40" height="47.43" viewBox="0 0 40 47.43"><defs><style>.cls-1{fill:none;stroke:#505050;stroke-linejoin:round;stroke-width:2px;}</style></defs><title>Ресурс 12</title><g id="Слой_2" data-name="Слой 2"><g id="icons"><path class="cls-1" d="M31,21V14.5a2,2,0,0,0-.24-.95L24.57,2.05A2,2,0,0,0,22.81,1H9.19A2,2,0,0,0,7.43,2.05L1.24,13.56A2,2,0,0,0,1,14.5V35a2,2,0,0,0,2,2H20"/><polygon class="cls-1" points="31.68 33.06 37.82 22.91 28.85 25 23.33 37.98 28.62 36.75 24.51 46.42 28 45 39 31.36 31.68 33.06"/><circle class="cls-1" cx="16" cy="28" r="3"/><line class="cls-1" x1="16" y1="22" x2="16" y2="20"/><line class="cls-1" x1="1" y1="14" x2="31" y2="14"/></g></g></svg>