<svg xmlns="http://www.w3.org/2000/svg" width="34" height="44" viewBox="0 0 34 44"><defs><style>.cls-1{fill:none;stroke:#505050;stroke-linejoin:round;stroke-width:2px;}</style></defs><title>Ресурс 18</title><g id="Слой_2" data-name="Слой 2"><g id="icons"><path class="cls-1" d="M32,43H6a1,1,0,0,1-1-1V29L1,25V18H3V14L1,12V2A1,1,0,0,1,2,1H32a1,1,0,0,1,1,1V42A1,1,0,0,1,32,43Z"/><rect class="cls-1" x="9" y="32" width="5" height="7"/><rect class="cls-1" x="14" y="32" width="5" height="7"/><rect class="cls-1" x="19" y="32" width="5" height="7"/><rect class="cls-1" x="24" y="32" width="5" height="7"/></g></g></svg>