<svg xmlns="http://www.w3.org/2000/svg" width="48" height="37" viewBox="0 0 48 37"><defs><style>.cls-1,.cls-2{fill:none;stroke:#505050;stroke-width:2px;}.cls-1{stroke-miterlimit:10;}.cls-2{stroke-linejoin:round;}</style></defs><title>Ресурс 17</title><g id="Слой_2" data-name="Слой 2"><g id="icons"><polyline class="cls-1" points="37 30 37 34 19 34 19 30"/><line class="cls-1" x1="25" y1="30" x2="25" y2="34"/><line class="cls-1" x1="31" y1="30" x2="31" y2="34"/><polyline class="cls-1" points="14 30 14 34 8 34 8 30"/><polyline class="cls-1" points="44 6 5 6 1 10 1 30 44 30"/><circle class="cls-2" cx="14" cy="18" r="8"/><circle class="cls-2" cx="14" cy="18" r="3"/><path class="cls-2" d="M17.08,21.94a6.06,6.06,0,0,0,3.28.91"/><path class="cls-2" d="M18.7,16.28a6,6,0,0,0,1.88-2.84"/><path class="cls-2" d="M13.79,13a6,6,0,0,0-2.13-2.66"/><path class="cls-2" d="M9.19,16.65A6.06,6.06,0,0,0,6,17.82"/><path class="cls-2" d="M11.21,22.15a6,6,0,0,0,.14,3.4"/><path class="cls-2" d="M44,37V3a2,2,0,0,1,2-2h2"/><line class="cls-2" x1="47" y1="10" x2="47" y2="15"/><line class="cls-2" x1="47" y1="19" x2="47" y2="26"/><line class="cls-2" x1="26" y1="12" x2="38" y2="12"/><line class="cls-2" x1="26" y1="16" x2="38" y2="16"/><line class="cls-2" x1="26" y1="23" x2="31" y2="23"/><line class="cls-2" x1="33" y1="23" x2="38" y2="23"/><line class="cls-1" x1="3" y1="27" x2="5" y2="27"/><line class="cls-1" x1="40" y1="27" x2="42" y2="27"/><line class="cls-1" x1="40" y1="9" x2="42" y2="9"/></g></g></svg>