<svg xmlns="http://www.w3.org/2000/svg" width="48" height="43" viewBox="0 0 48 43"><defs><style>.cls-1{fill:none;stroke:#505050;stroke-miterlimit:10;stroke-width:2px;}</style></defs><title>Ресурс 20</title><g id="Слой_2" data-name="Слой 2"><g id="icons"><path class="cls-1" d="M19,19H2a1,1,0,0,1-1-1V2A1,1,0,0,1,2,1H46a1,1,0,0,1,1,1V18a1,1,0,0,1-1,1H29"/><line class="cls-1" x1="1" y1="7" x2="37" y2="7"/><line class="cls-1" x1="1" y1="13" x2="47" y2="13"/><polyline class="cls-1" points="37 1 37 7 40 7 40 13"/><line class="cls-1" x1="7" y1="1" x2="7" y2="7"/><line class="cls-1" x1="13" y1="1" x2="13" y2="7"/><line class="cls-1" x1="19" y1="1" x2="19" y2="7"/><line class="cls-1" x1="25" y1="1" x2="25" y2="7"/><line class="cls-1" x1="31" y1="1" x2="31" y2="7"/><line class="cls-1" x1="10" y1="7" x2="10" y2="13"/><line class="cls-1" x1="16" y1="7" x2="16" y2="13"/><line class="cls-1" x1="22" y1="7" x2="22" y2="13"/><line class="cls-1" x1="28" y1="7" x2="28" y2="13"/><line class="cls-1" x1="34" y1="7" x2="34" y2="13"/><line class="cls-1" x1="11" y1="13" x2="11" y2="19"/><line class="cls-1" x1="37" y1="13" x2="37" y2="19"/><path class="cls-1" d="M22,40V38c-2.46-1.92-3.21-4.42-4-6l-2-4c0-1,2.05-2,3.09-1s2,2,2,2h1V18a2,2,0,0,1,2-2h0a2,2,0,0,1,2,2v7l7,1.44A3.54,3.54,0,0,1,36,30v5c0,1.13-1,2-1,3v2Z"/><polyline class="cls-1" points="21 43 21 40 36 40 36 43"/></g></g></svg>