<svg xmlns="http://www.w3.org/2000/svg" width="48" height="37" viewBox="0 0 48 37">
    <defs>
        <style>
            .cls-1,.cls-2{fill:none;stroke:#505050;stroke-width:2px;}.cls-1{stroke-miterlimit:10;}.cls-2{stroke-linejoin:round;}
        </style>
    </defs>
    <title>Ресурс 3</title>
    <g id="Слой_2" data-name="Слой 2">
        <g id="icons">
            <polyline class="cls-1" points="44 6 5 6 1 10 1 30 44 30"/>
            <path class="cls-2" d="M44,37V3a2,2,0,0,1,2-2h2"/>
            <line class="cls-2" x1="47" y1="10" x2="47" y2="15"/>
            <line class="cls-2" x1="47" y1="19" x2="47" y2="26"/>
            <line class="cls-2" x1="37" y1="12" x2="37" y2="24"/>
            <line class="cls-2" x1="33" y1="12" x2="33" y2="24"/>
            <line class="cls-2" x1="27" y1="12" x2="27" y2="17"/>
            <line class="cls-2" x1="27" y1="19" x2="27" y2="24"/>
            <line class="cls-1" x1="3" y1="27" x2="5" y2="27"/>
            <line class="cls-1" x1="40" y1="27" x2="42" y2="27"/>
            <line class="cls-1" x1="40" y1="9" x2="42" y2="9"/>
            <rect class="cls-2" x="9" y="13" width="10" height="10"/>
            <line class="cls-2" x1="12" y1="10" x2="12" y2="13"/>
            <line class="cls-2" x1="16" y1="10" x2="16" y2="13"/>
            <line class="cls-2" x1="12" y1="23" x2="12" y2="26"/>
            <line class="cls-2" x1="16" y1="23" x2="16" y2="26"/>
            <line class="cls-2" x1="6" y1="16" x2="9" y2="16"/>
            <line class="cls-2" x1="6" y1="20" x2="9" y2="20"/>
            <line class="cls-2" x1="19" y1="20" x2="22" y2="20"/>
            <line class="cls-2" x1="19" y1="16" x2="22" y2="16"/>
            <polyline class="cls-1" points="37 30 37 34 19 34 19 30"/>
            <line class="cls-1" x1="25" y1="30" x2="25" y2="34"/>
            <line class="cls-1" x1="31" y1="30" x2="31" y2="34"/>
            <polyline class="cls-1" points="14 30 14 34 8 34 8 30"/>
        </g>
    </g>
</svg>