<svg xmlns="http://www.w3.org/2000/svg" width="42" height="42" viewBox="0 0 42 42">
    <defs>
        <style>.cls-1{fill:none;stroke:#505050;stroke-linejoin:round;stroke-width:2px;}</style>
    </defs>
    <title>Ресурс 4</title>
    <g id="Слой_2" data-name="Слой 2">
        <g id="icons">
            <polygon class="cls-1" points="41 41 2 41 2 19 1 19 1 15 2 15 2 11 1 11 1 6 2 6 2 1 41 1 41 41"/>
            <rect class="cls-1" x="9" y="9" width="10" height="10"/>
            <line class="cls-1" x1="12" y1="6" x2="12" y2="9"/>
            <line class="cls-1" x1="16" y1="6" x2="16" y2="9"/>
            <line class="cls-1" x1="12" y1="19" x2="12" y2="22"/>
            <line class="cls-1" x1="16" y1="19" x2="16" y2="22"/>
            <line class="cls-1" x1="6" y1="12" x2="9" y2="12"/>
            <line class="cls-1" x1="6" y1="16" x2="9" y2="16"/>
            <line class="cls-1" x1="19" y1="16" x2="22" y2="16"/>
            <line class="cls-1" x1="19" y1="12" x2="22" y2="12"/>
            <line class="cls-1" x1="35" y1="18" x2="35" y2="20"/>
            <line class="cls-1" x1="35" y1="34" x2="35" y2="36"/>
            <line class="cls-1" x1="35" y1="22" x2="35" y2="32"/>
            <line class="cls-1" x1="31" y1="18" x2="31" y2="20"/>
            <line class="cls-1" x1="31" y1="34" x2="31" y2="36"/>
            <line class="cls-1" x1="31" y1="22" x2="31" y2="32"/>
            <rect class="cls-1" x="26" y="9" width="9" height="6"/>
            <line class="cls-1" x1="6" y1="27" x2="27" y2="27"/>
            <line class="cls-1" x1="6" y1="31" x2="27" y2="31"/>
            <line class="cls-1" x1="6" y1="35" x2="27" y2="35"/>
        </g>
    </g>
</svg>