<svg xmlns="http://www.w3.org/2000/svg" width="36" height="46" viewBox="0 0 36 46">
    <defs>
        <style>.cls-1{fill:none;stroke:#505050;stroke-linejoin:round;stroke-width:2px;}</style>
    </defs>
    <title>Ресурс 6</title>
    <g id="Слой_2" data-name="Слой 2">
        <g id="icons">
            <rect class="cls-1" x="1" y="1" width="34" height="44" rx="3" ry="3"/>
            <line class="cls-1" x1="1" y1="39" x2="35" y2="39"/>
            <path class="cls-1"
                  d="M23.33,25.61c-.78-.43-1.55-.66-2.21,0s-.43,1.44,0,2.21A47,47,0,0,0,25,33.92a3.13,3.13,0,0,0,4.43-4.43A47,47,0,0,0,23.33,25.61Z"/>
            <path class="cls-1" d="M22.92,30.95a12,12,0,1,1,5.9-5.75"/>
            <circle class="cls-1" cx="18" cy="20" r="3"/>
            <line class="cls-1" x1="5" y1="42" x2="8" y2="42"/>
            <line class="cls-1" x1="10" y1="42" x2="13" y2="42"/>
        </g>
    </g>
</svg>