<svg xmlns="http://www.w3.org/2000/svg" width="14" height="14" viewBox="0 0 14 14"><defs><clipPath id="41ema"><path fill="#fff" d="M11.243.634l2.121 2.121-4.242 4.243 4.243 4.243-2.122 2.12L7 9.12 2.758 13.36l-2.121-2.12 4.242-4.243L.637 2.755 2.757.634l4.244 4.243z"/></clipPath></defs><g><g><path fill="#fff" d="M11.243.634l2.121 2.121-4.242 4.243 4.243 4.243-2.122 2.12L7 9.12 2.758 13.36l-2.121-2.12 4.242-4.243L.637 2.755 2.757.634l4.244 4.243z"/><path fill="#222" d="M11.243.634l2.121 2.121-4.242 4.243 4.243 4.243-2.122 2.12L7 9.12 2.758 13.36l-2.121-2.12 4.242-4.243L.637 2.755 2.757.634l4.244 4.243z"/><path fill="none" stroke="#e8e8e8" stroke-miterlimit="50" stroke-width="2" d="M11.243.634l2.121 2.121-4.242 4.243 4.243 4.243-2.122 2.12L7 9.12 2.758 13.36l-2.121-2.12 4.242-4.243L.637 2.755 2.757.634l4.244 4.243z" clip-path="url(&quot;#41ema&quot;)"/></g></g></svg>