<svg xmlns="http://www.w3.org/2000/svg" width="26" height="18" viewBox="0 0 26 18">
    <g>
        <g>
            <path d="M4.5 0h17A1.5 1.5 0 0 1 23 1.5v1A1.5 1.5 0 0 1 21.5 4h-17A1.5 1.5 0 0 1 3 2.5v-1A1.5 1.5 0 0 1 4.5 0z"/>
        </g>
        <g>
            <path d="M1.5 7h23A1.5 1.5 0 0 1 26 8.5v1a1.5 1.5 0 0 1-1.5 1.5h-23A1.5 1.5 0 0 1 0 9.5v-1A1.5 1.5 0 0 1 1.5 7z"/>
        </g>
        <g>
            <path d="M4.5 14h17a1.5 1.5 0 0 1 1.5 1.5v1a1.5 1.5 0 0 1-1.5 1.5h-17A1.5 1.5 0 0 1 3 16.5v-1A1.5 1.5 0 0 1 4.5 14z"/>
        </g>
    </g>
</svg>