<?xml version="1.0" encoding="utf-8"?><svg xmlns="http://www.w3.org/2000/svg" xmlns:xlink="http://www.w3.org/1999/xlink"><symbol viewBox="0 0 10 5" id="angle" xmlns="http://www.w3.org/2000/svg"><path d="M.77.71l.692-.88L5 2.605 8.536-.171l.691.881-3.484 2.735-.568.723L5 4.029l-.177.139-.567-.723z"/><path d="M.77.71l.692-.88L5 2.605 8.536-.171l.691.881-3.484 2.735-.568.723L5 4.029l-.177.139-.567-.723z"/></symbol><symbol viewBox="0 0 4 8" id="angle-r" xmlns="http://www.w3.org/2000/svg"><path d="M.803 8.009l-.817-.656L2.562 4-.014.646l.817-.655L3.34 3.294l.67.538L3.883 4l.129.167-.671.539z"/><path d="M.803 8.009l-.817-.656L2.562 4-.014.646l.817-.655L3.34 3.294l.67.538L3.883 4l.129.167-.671.539z"/></symbol><symbol viewBox="0 0 28 15" id="arr-l" xmlns="http://www.w3.org/2000/svg"><g opacity=".5"><path d="M1.353 8.353l-.354-.354-.353-.353.146-.147-.146-.146L.999 7l.354-.353.146.146L7.646.646l.707.707-5.647 5.646H28v1H2.706l5.647 5.647-.707.707-6.147-6.147z"/><path d="M1.353 8.353l-.354-.354-.353-.353.146-.147-.146-.146L.999 7l.354-.353.146.146L7.646.646l.707.707-5.647 5.646H28v1H2.706l5.647 5.647-.707.707-6.147-6.147z"/></g></symbol><symbol viewBox="0 0 28 15" id="arr-r" xmlns="http://www.w3.org/2000/svg"><path d="M19.646 1.353l.707-.707 6.146 6.146.147-.146.353.353.354.354-.146.146.146.147-.707.707-.146-.147-6.147 6.147-.707-.707 5.646-5.647H0V7h25.293z"/><path d="M19.646 1.353l.707-.707 6.146 6.146.147-.146.353.353.354.354-.146.146.146.147-.707.707-.146-.147-6.147 6.147-.707-.707 5.646-5.647H0V7h25.293z"/></symbol><symbol viewBox="0 0 486.569 486.569" id="cart" xmlns="http://www.w3.org/2000/svg"><path d="M146.069 320.369h268.1c30.4 0 55.2-24.8 55.2-55.2v-114c0-.2 0-.4-.1-.6 0-.2-.1-.5-.1-.7s-.1-.4-.1-.6c-.1-.2-.1-.4-.2-.7-.1-.2-.1-.4-.2-.6-.1-.2-.1-.4-.2-.6-.1-.2-.2-.4-.3-.7-.1-.2-.2-.4-.3-.5l-.3-.6c-.1-.2-.2-.3-.3-.5-.1-.2-.3-.4-.4-.6-.1-.2-.2-.3-.4-.5-.1-.2-.3-.3-.4-.5s-.3-.3-.4-.5-.3-.3-.4-.4l-.5-.5c-.2-.1-.3-.3-.5-.4-.2-.1-.4-.3-.6-.4-.2-.1-.3-.2-.5-.3s-.4-.2-.6-.4l-.6-.3-.6-.3-.6-.3c-.2-.1-.4-.1-.6-.2-.2-.1-.5-.2-.7-.2s-.4-.1-.5-.1c-.3-.1-.5-.1-.8-.1-.1 0-.2-.1-.4-.1l-339.8-46.9v-47.4c0-.5 0-1-.1-1.4 0-.1 0-.2-.1-.4 0-.3-.1-.6-.1-.9-.1-.3-.1-.5-.2-.8 0-.2-.1-.3-.1-.5l-.3-.9c0-.1-.1-.3-.1-.4-.1-.3-.2-.5-.4-.8-.1-.1-.1-.3-.2-.4-.1-.2-.2-.4-.4-.6-.1-.2-.2-.3-.3-.5s-.2-.3-.3-.5-.3-.4-.4-.6l-.3-.3-.6-.6-.3-.3c-.2-.2-.4-.4-.7-.6-.1-.1-.3-.2-.4-.3-.2-.2-.4-.3-.6-.5-.3-.2-.6-.4-.8-.5-.1-.1-.2-.1-.3-.2-.4-.2-.9-.4-1.3-.6l-73.7-31c-6.9-2.9-14.8.3-17.7 7.2s.3 14.8 7.2 17.7l65.4 27.6v295.8c0 28 21 51.2 48.1 54.7-4.9 8.2-7.8 17.8-7.8 28 0 30.1 24.5 54.5 54.5 54.5s54.5-24.5 54.5-54.5c0-10-2.7-19.5-7.5-27.5h121.4c-4.8 8.1-7.5 17.5-7.5 27.5 0 30.1 24.5 54.5 54.5 54.5s54.5-24.5 54.5-54.5-24.5-54.5-54.5-54.5h-255c-15.6 0-28.2-12.7-28.2-28.2v-36.6c8.2 4.8 17.9 7.6 28.2 7.6zm67.2 111.6c0 15.2-12.4 27.5-27.5 27.5s-27.5-12.4-27.5-27.5 12.4-27.5 27.5-27.5 27.5 12.3 27.5 27.5zm215.4 0c0 15.2-12.4 27.5-27.5 27.5s-27.5-12.4-27.5-27.5 12.4-27.5 27.5-27.5 27.5 12.3 27.5 27.5zm-14.5-138.6h-268.1c-15.6 0-28.2-12.7-28.2-28.2v-145.9l324.5 44.7v101.1c0 15.7-12.7 28.3-28.2 28.3z"/></symbol><symbol viewBox="0 0 42 38" id="cat1" xmlns="http://www.w3.org/2000/svg"><defs><style>.afcls-1{fill:none;stroke:#505050;stroke-linejoin:round;stroke-width:2px}</style></defs><g id="afСлой_2" data-name="Слой 2"><path class="afcls-1" d="M34.58 3.25A3 3 0 0 0 31.68 1H10.32a3 3 0 0 0-2.9 2.25L1.26 26A8 8 0 0 0 1 28v7a2 2 0 0 0 2 2h36a2 2 0 0 0 2-2v-7a8 8 0 0 0-.26-2zM1 27h40M5 32h2m2 0h2m2 0h2" id="aficons"/></g></symbol><symbol viewBox="0 0 48 31" id="cat10" xmlns="http://www.w3.org/2000/svg"><defs><style>.agcls-1{fill:none;stroke:#505050;stroke-miterlimit:10;stroke-width:2px}</style></defs><g id="agСлой_2" data-name="Слой 2"><g id="agicons"><path class="agcls-1" d="M38 13H1v4l.59.59a2 2 0 0 1 0 2.83L1 21v4h2v5h33v-5h2v-4l-.59-.59a2 2 0 0 1 0-2.83L38 17z"/><path class="agcls-1" d="M7 17h5v6H7zm10 0h5v6h-5zm10 0h5v6h-5zM7 27v3m5-3v3m5-3v3m5-3v3m5-3v3m5-3v3M10 10V9l.59-.59a2 2 0 0 0 0-2.83L10 5V1h37v4l-.59.59a2 2 0 0 0 0 2.83L47 9v4h-2v4h-4"/><path class="agcls-1" d="M16 10V5h5v5m5 0V5h5v5m5 0V5h5v5"/></g></g></symbol><symbol viewBox="0 0 42 42" id="cat11" xmlns="http://www.w3.org/2000/svg"><defs><style>.ahcls-1,.ahcls-2{fill:none;stroke:#505050;stroke-linejoin:round;stroke-width:2px}.ahcls-2{stroke-linecap:round}</style></defs><g id="ahСлой_2" data-name="Слой 2"><g id="ahicons"><circle class="ahcls-1" cx="21" cy="21" r="17"/><circle class="ahcls-1" cx="21" cy="21" r="4"/><path class="ahcls-2" d="M15 10c2-2 6.41-2.34 6.58-2a9.1 9.1 0 0 1-.58 9M8.66 18.83c-.32-2.81 2.17-6.47 2.54-6.39a9.1 9.1 0 0 1 6.68 6.07M11.6 29.29c-2.39-1.51-3.7-5.73-3.41-6a9.1 9.1 0 0 1 8.9-1.43m4.52 11.65c-2.67.93-6.79-.68-6.79-1.06a9.1 9.1 0 0 1 4.44-7.85m11.9 3.73C30.22 31 26.4 33.21 26.1 33a9.1 9.1 0 0 1-3.37-8.37m10.34-7c1.5 2.4.84 6.77.47 6.86a9.1 9.1 0 0 1-8.64-2.59m.99-12.43c2.81.33 5.82 3.56 5.65 3.91a9.1 9.1 0 0 1-7.41 5.14"/><rect class="ahcls-1" x="1" y="1" width="40" height="40" rx="2" ry="2"/><path class="ahcls-1" d="M37 4v2m0 30v2M5 4v2m0 30v2"/></g></g></symbol><symbol viewBox="0 0 40 45" id="cat12" xmlns="http://www.w3.org/2000/svg"><defs><style>.aicls-1{fill:none;stroke:#505050;stroke-linejoin:round;stroke-width:2px}</style></defs><g id="aiСлой_2" data-name="Слой 2"><path class="aicls-1" d="M3 44h34a2 2 0 0 0 2-2V9.9a2 2 0 0 0-.67-1.49l-7.76-6.9A2 2 0 0 0 29.24 1H10.76a2 2 0 0 0-1.33.51L1.67 8.4A2 2 0 0 0 1 9.9V42a2 2 0 0 0 2 2zm36-33H1m38 11H1m38 11H1m4-15h6m19-2v3m4-3v3M5 29h6m19-2v3m4-3v3M5 40h6m19-2v3m4-3v3" id="aiicons"/></g></symbol><symbol viewBox="0 0 48 32" id="cat13" xmlns="http://www.w3.org/2000/svg"><defs><style>.ajcls-1,.ajcls-2{fill:none;stroke:#505050;stroke-width:2px}.ajcls-1{stroke-miterlimit:10}.ajcls-2{stroke-linejoin:round}</style></defs><g id="ajСлой_2" data-name="Слой 2"><g id="ajicons"><path class="ajcls-1" d="M44 27V3a2 2 0 0 0-2-2H6a2 2 0 0 0-2 2v24"/><path class="ajcls-2" d="M10 4L7 7m8-3l-8 8"/><path class="ajcls-1" d="M29 27l-1 1h-8l-1-1H1a4 4 0 0 0 4 4h38a4 4 0 0 0 4-4z"/></g></g></symbol><symbol viewBox="0 0 37.91 47.91" id="cat14" xmlns="http://www.w3.org/2000/svg"><defs><style>.akcls-1{fill:none;stroke:#505050;stroke-miterlimit:10;stroke-width:2px}</style></defs><g id="akСлой_2" data-name="Слой 2"><g id="akicons"><path class="akcls-1" d="M15.41 8.41l-3-3 4-4 3 3m1.3 11.3l-5.59-5.59a.93.93 0 0 1-.12-1.3L19.82 4a.93.93 0 0 1 1.3.12l5.59 5.59a.93.93 0 0 1 .12 1.3L22 15.82a.93.93 0 0 1-1.29-.11zm2.2.2l6.95 6.95a7 7 0 0 1 2.05 4.95v20.1"/><path class="akcls-1" d="M26.91 11.91l7.95 7.95a7 7 0 0 1 2.05 4.95v23.1m-32.5-28.5l-3-3 4-4 3 3m1.3 11.3l-5.59-5.59a.93.93 0 0 1-.12-1.3L8.82 15a.93.93 0 0 1 1.3.12l5.59 5.59a.93.93 0 0 1 .12 1.3L11 26.82a.93.93 0 0 1-1.29-.11zm2.2.2l6.95 6.95a7 7 0 0 1 2.05 4.95v9.1m-5-25l7.95 7.95a7 7 0 0 1 2.05 4.95v12.1"/></g></g></symbol><symbol viewBox="0 0 40 47.43" id="cat15" xmlns="http://www.w3.org/2000/svg"><defs><style>.alcls-1{fill:none;stroke:#505050;stroke-linejoin:round;stroke-width:2px}</style></defs><g id="alСлой_2" data-name="Слой 2"><g id="alicons"><path class="alcls-1" d="M31 21v-6.5a2 2 0 0 0-.24-.95l-6.19-11.5A2 2 0 0 0 22.81 1H9.19a2 2 0 0 0-1.76 1.05L1.24 13.56a2 2 0 0 0-.24.94V35a2 2 0 0 0 2 2h17m11.68-3.94l6.14-10.15L28.85 25l-5.52 12.98 5.29-1.23-4.11 9.67L28 45l11-13.64-7.32 1.7z"/><circle class="alcls-1" cx="16" cy="28" r="3"/><path class="alcls-1" d="M16 22v-2M1 14h30"/></g></g></symbol><symbol viewBox="0 0 48 34" id="cat16" xmlns="http://www.w3.org/2000/svg"><defs><style>.amcls-1{fill:none;stroke:#505050;stroke-linejoin:round;stroke-width:2px}</style></defs><g id="amСлой_2" data-name="Слой 2"><g id="amicons"><rect class="amcls-1" x="1" y="1" width="46" height="26" rx="1" ry="1"/><path class="amcls-1" d="M21 33v-6m6 0v6m-12 0h18M7 4L4 7m8-3l-8 8"/></g></g></symbol><symbol viewBox="0 0 42 43" id="cat17" xmlns="http://www.w3.org/2000/svg"><defs><style>.ancls-1{fill:none;stroke:#505050;stroke-linejoin:round;stroke-width:2px}</style></defs><g id="anСлой_2" data-name="Слой 2"><g id="anicons"><path class="ancls-1" d="M31.08 12.61c1.76 2.64 1 5.84-2.3 8-3.46 2.27-8.65 2.71-12.78 1.33m-5.27-3.85c-1.51-2.58-.68-5.61 2.49-7.69a15.42 15.42 0 0 1 11.64-1.66m-.21 9.15l7.66 5.03m-14.96-9.81L9.69 8.08m7.66 9.81l-7.66 5.03m14.96-9.81l7.66-5.03"/><path class="ancls-1" d="M8.5-4.5h27v40h-27a2 2 0 0 1-2-2v-36a2 2 0 0 1 2-2z" transform="rotate(90 21 15.5)"/><path class="ancls-1" d="M41 30v10a2 2 0 0 1-2 2H3a2 2 0 0 1-2-2V30"/><path class="ancls-1" d="M29 34h7v4h-7zm9-8h-2m2-21h-2M6 5H4m2 21H4"/><ellipse class="ancls-1" cx="21" cy="15.5" rx="16" ry="10.5"/><ellipse class="ancls-1" cx="21" cy="15.5" rx="5" ry="3.5"/></g></g></symbol><symbol viewBox="0 0 40.84 43.92" id="cat18" xmlns="http://www.w3.org/2000/svg"><defs><style>.aocls-1{fill:none;stroke:#505050;stroke-miterlimit:10;stroke-width:2px}</style></defs><g id="aoСлой_2" data-name="Слой 2"><g id="aoicons"><rect class="aocls-1" x="13.9" y="14.73" width="19.12" height="29.64" rx="9.31" ry="9.31" transform="rotate(45 23.47 29.551)"/><path class="aocls-1" d="M30.88 22.24l-3.82 3.83M3.52.82A8.6 8.6 0 0 0 15.69 13l9.46-9.46a8.6 8.6 0 1 1 12.17 12.15l-3.38 3.38"/></g></g></symbol><symbol viewBox="0 0 42 42" id="cat19" xmlns="http://www.w3.org/2000/svg"><defs><style>.apcls-1{fill:none;stroke:#505050;stroke-miterlimit:10;stroke-width:2px}</style></defs><g id="apСлой_2" data-name="Слой 2"><g id="apicons"><path class="apcls-1" d="M5 5h32v32H5z"/><path class="apcls-1" d="M15 15h12v12H15zM13 5V0M9 5V0m8 5V0m4 5V0m4 5V0m4 5V0m4 5V0M13 42v-5m-4 5v-5m8 5v-5m4 5v-5m4 5v-5m4 5v-5m4 5v-5M5 9H0m5 4H0m5 4H0m5 4H0m5 4H0m5 4H0m5 4H0M42 9h-5m5 4h-5m5 4h-5m5 4h-5m5 4h-5m5 4h-5m5 4h-5"/></g></g></symbol><symbol viewBox="0 0 34 44" id="cat2" xmlns="http://www.w3.org/2000/svg"><defs><style>.aqcls-1{fill:none;stroke:#505050;stroke-linejoin:round;stroke-width:2px}</style></defs><g id="aqСлой_2" data-name="Слой 2"><g id="aqicons"><path class="aqcls-1" d="M32 43H6a1 1 0 0 1-1-1V29l-4-4v-7h2v-4l-2-2V2a1 1 0 0 1 1-1h30a1 1 0 0 1 1 1v40a1 1 0 0 1-1 1z"/><path class="aqcls-1" d="M9 32h5v7H9zm5 0h5v7h-5zm5 0h5v7h-5zm5 0h5v7h-5z"/></g></g></symbol><symbol viewBox="0 0 48 37" id="cat20" xmlns="http://www.w3.org/2000/svg"><defs><style>.arcls-1,.arcls-2{fill:none;stroke:#505050;stroke-width:2px}.arcls-1{stroke-miterlimit:10}.arcls-2{stroke-linejoin:round}</style></defs><g id="arСлой_2" data-name="Слой 2"><g id="aricons"><path class="arcls-1" d="M37 30v4H19v-4m6 0v4m6-4v4m-17-4v4H8v-4M44 6H5l-4 4v20h43"/><circle class="arcls-2" cx="14" cy="18" r="8"/><circle class="arcls-2" cx="14" cy="18" r="3"/><path class="arcls-2" d="M17.08 21.94a6.06 6.06 0 0 0 3.28.91m-1.66-6.57a6 6 0 0 0 1.88-2.84M13.79 13a6 6 0 0 0-2.13-2.66m-2.47 6.31A6.06 6.06 0 0 0 6 17.82m5.21 4.33a6 6 0 0 0 .14 3.4M44 37V3a2 2 0 0 1 2-2h2m-1 9v5m0 4v7M26 12h12m-12 4h12m-12 7h5m2 0h5"/><path class="arcls-1" d="M3 27h2m35 0h2M40 9h2"/></g></g></symbol><symbol viewBox="0 0 46 38" id="cat3" xmlns="http://www.w3.org/2000/svg"><defs><style>.ascls-1{fill:none;stroke:#505050;stroke-linejoin:round;stroke-width:2px}</style></defs><g id="asСлой_2" data-name="Слой 2"><g id="asicons"><rect class="ascls-1" x="1" y="1" width="44" height="30" rx="2" ry="2" transform="rotate(180 23 16)"/><path class="ascls-1" d="M26 37v-6m-6 0v6m12 0H14M7 4L4 7m8-3l-8 8m41 13H1m23 3h-2"/></g></g></symbol><symbol viewBox="0 0 48 34" id="cat4" xmlns="http://www.w3.org/2000/svg"><defs><style>.atcls-1{fill:none;stroke:#505050;stroke-linejoin:round;stroke-width:2px}</style></defs><g id="atСлой_2" data-name="Слой 2"><g id="aticons"><path class="atcls-1" d="M22 33H2a1 1 0 0 1-1-1V2a1 1 0 0 1 1-1h11l11.32 3.77a1 1 0 0 1 .68.95V8"/><path class="atcls-1" d="M17 10h30v18H17zm12 23v-5m6 0v5m-11 0h16M8 28H5m8-27v32"/></g></g></symbol><symbol viewBox="0 0 48 43" id="cat5" xmlns="http://www.w3.org/2000/svg"><defs><style>.aucls-1{fill:none;stroke:#505050;stroke-miterlimit:10;stroke-width:2px}</style></defs><g id="auСлой_2" data-name="Слой 2"><g id="auicons"><path class="aucls-1" d="M19 19H2a1 1 0 0 1-1-1V2a1 1 0 0 1 1-1h44a1 1 0 0 1 1 1v16a1 1 0 0 1-1 1H29M1 7h36M1 13h46"/><path class="aucls-1" d="M37 1v6h3v6M7 1v6m6-6v6m6-6v6m6-6v6m6-6v6M10 7v6m6-6v6m6-6v6m6-6v6m6-6v6m-23 0v6m26-6v6M22 40v-2c-2.46-1.92-3.21-4.42-4-6l-2-4c0-1 2.05-2 3.09-1s2 2 2 2h1V18a2 2 0 0 1 2-2 2 2 0 0 1 2 2v7l7 1.44A3.54 3.54 0 0 1 36 30v5c0 1.13-1 2-1 3v2zm-1 3v-3h15v3"/></g></g></symbol><symbol viewBox="0 0 48 37" id="cat6" xmlns="http://www.w3.org/2000/svg"><defs><style>.avcls-1,.avcls-2{fill:none;stroke:#505050;stroke-width:2px}.avcls-1{stroke-miterlimit:10}.avcls-2{stroke-linejoin:round}</style></defs><g id="avСлой_2" data-name="Слой 2"><g id="avicons"><path class="avcls-1" d="M44 6H5l-4 4v20h43"/><path class="avcls-2" d="M44 37V3a2 2 0 0 1 2-2h2m-1 9v5m0 4v7M37 12v12m-4-12v12m-6-12v5m0 2v5"/><path class="avcls-1" d="M3 27h2m35 0h2M40 9h2"/><path class="avcls-2" d="M9 13h10v10H9zm3-3v3m4-3v3m-4 10v3m4-3v3M6 16h3m-3 4h3m10 0h3m-3-4h3"/><path class="avcls-1" d="M37 30v4H19v-4m6 0v4m6-4v4m-17-4v4H8v-4"/></g></g></symbol><symbol viewBox="0 0 42 42" id="cat7" xmlns="http://www.w3.org/2000/svg"><defs><style>.awcls-1{fill:none;stroke:#505050;stroke-linejoin:round;stroke-width:2px}</style></defs><g id="awСлой_2" data-name="Слой 2"><g id="awicons"><path class="awcls-1" d="M41 41H2V19H1v-4h1v-4H1V6h1V1h39v40z"/><path class="awcls-1" d="M9 9h10v10H9zm3-3v3m4-3v3m-4 10v3m4-3v3M6 12h3m-3 4h3m10 0h3m-3-4h3m13 6v2m0 14v2m0-14v10m-4-14v2m0 14v2m0-14v10M26 9h9v6h-9zM6 27h21M6 31h21M6 35h21"/></g></g></symbol><symbol viewBox="0 0 46 43.66" id="cat8" xmlns="http://www.w3.org/2000/svg"><defs><style>.axcls-1{fill:none;stroke:#505050;stroke-linejoin:round;stroke-width:2px}</style></defs><g id="axСлой_2" data-name="Слой 2"><g id="axicons"><rect class="axcls-1" x="1" y="30.66" width="44" height="10" rx="2" ry="2"/><path class="axcls-1" d="M5 35.66h2m2 0h2m2 0h2m-11 5v3m38-3v3m-11-13v-24m5-.28a3 3 0 0 1 0 4.55m2.79-7.38a7 7 0 0 1 0 10.21M41.62.72a11 11 0 0 1 0 15.87M26 6.38a3 3 0 0 0 0 4.55m-2.83-7.38a7 7 0 0 0 0 10.21M20.34.72a11 11 0 0 0 0 15.87"/></g></g></symbol><symbol viewBox="0 0 36 46" id="cat9" xmlns="http://www.w3.org/2000/svg"><defs><style>.aycls-1{fill:none;stroke:#505050;stroke-linejoin:round;stroke-width:2px}</style></defs><g id="ayСлой_2" data-name="Слой 2"><g id="ayicons"><rect class="aycls-1" x="1" y="1" width="34" height="44" rx="3" ry="3"/><path class="aycls-1" d="M1 39h34M23.33 25.61c-.78-.43-1.55-.66-2.21 0s-.43 1.44 0 2.21a47 47 0 0 0 3.88 6.1 3.13 3.13 0 0 0 4.43-4.43 47 47 0 0 0-6.1-3.88zm-.41 5.34a12 12 0 1 1 5.9-5.75"/><circle class="aycls-1" cx="18" cy="20" r="3"/><path class="aycls-1" d="M5 42h3m2 0h3"/></g></g></symbol><symbol viewBox="0 0 471.701 471.701" id="heart" xmlns="http://www.w3.org/2000/svg"><path d="M433.601 67.001c-24.7-24.7-57.4-38.2-92.3-38.2s-67.7 13.6-92.4 38.3l-12.9 12.9-13.1-13.1c-24.7-24.7-57.6-38.4-92.5-38.4-34.8 0-67.6 13.6-92.2 38.2-24.7 24.7-38.3 57.5-38.2 92.4 0 34.9 13.7 67.6 38.4 92.3l187.8 187.8c2.6 2.6 6.1 4 9.5 4 3.4 0 6.9-1.3 9.5-3.9l188.2-187.5c24.7-24.7 38.3-57.5 38.3-92.4.1-34.9-13.4-67.7-38.1-92.4zm-19.2 165.7l-178.7 178-178.3-178.3c-19.6-19.6-30.4-45.6-30.4-73.3s10.7-53.7 30.3-73.2c19.5-19.5 45.5-30.3 73.1-30.3 27.7 0 53.8 10.8 73.4 30.4l22.6 22.6c5.3 5.3 13.8 5.3 19.1 0l22.4-22.4c19.6-19.6 45.7-30.4 73.3-30.4 27.6 0 53.6 10.8 73.2 30.3 19.6 19.6 30.3 45.6 30.3 73.3.1 27.7-10.7 53.7-30.3 73.3z"/></symbol><symbol viewBox="-16 -18 533.333 533" id="recycle" xmlns="http://www.w3.org/2000/svg"><path d="M248.43 25.082c39.289 0 78.64 11.152 113.8 32.254a246.365 246.365 0 0 1 59.364 49.973l-58.739-1.938c-6.898-.23-12.675 5.18-12.902 12.082-.226 6.899 5.18 12.68 12.082 12.902l81.27 2.684a12.502 12.502 0 0 0 13.605-2.726 12.502 12.502 0 0 0 2.703-13.61l-2.675-81.25c-.157-6.902-5.88-12.371-12.782-12.219-6.898.157-12.375 5.88-12.218 12.778 0 .093 0 .18.007.27l1.547 46.874a272.667 272.667 0 0 0-58.398-47.265C336.05 12.465 292.25.082 248.43.082c-70 0-134.54 28.863-181.703 81.27C24.945 127.777 0 190.266 0 248.512c0 6.902 5.594 12.5 12.5 12.5s12.5-5.598 12.5-12.5c0-52.239 22.543-108.477 60.309-150.434 42.367-47.066 100.293-72.996 163.12-72.996zm239.07 210.93c-6.906 0-12.5 5.593-12.5 12.5 0 52.234-22.543 108.476-60.309 150.437-42.367 47.067-100.293 72.988-163.12 72.988-39.29 0-78.641-11.144-113.801-32.246a246.543 246.543 0 0 1-59.364-49.972l58.739 1.937c6.898.223 12.675-5.187 12.902-12.086.226-6.898-5.18-12.675-12.082-12.906l-81.27-2.68a12.496 12.496 0 1 0-16.309 16.332l2.677 81.25c.156 6.907 5.878 12.38 12.78 12.223 6.9-.152 12.376-5.875 12.22-12.777 0-.09 0-.176-.008-.27l-1.547-46.875a272.803 272.803 0 0 0 58.398 47.27c39.043 23.43 82.844 35.808 126.664 35.808 70 0 134.54-28.86 181.703-81.265C475.055 369.25 500 306.762 500 248.512c0-6.907-5.594-12.5-12.5-12.5zm0 0"/></symbol><symbol viewBox="0 0 563.43 563.43" id="user" xmlns="http://www.w3.org/2000/svg"><path d="M280.79 314.559c83.266 0 150.803-67.538 150.803-150.803S364.055 13.415 280.79 13.415 129.987 80.953 129.987 163.756s67.537 150.803 150.803 150.803zm0-261.824c61.061 0 111.021 49.959 111.021 111.021s-49.96 111.02-111.021 111.02-111.021-49.959-111.021-111.021 49.959-111.02 111.021-111.02zM19.891 550.015h523.648c11.102 0 19.891-8.789 19.891-19.891 0-104.082-84.653-189.198-189.198-189.198H189.198C85.116 340.926 0 425.579 0 530.124c0 11.102 8.789 19.891 19.891 19.891zm169.307-169.307h185.034c75.864 0 138.313 56.436 148.028 129.524H41.17c9.714-72.625 72.164-129.524 148.028-129.524z"/></symbol></svg>